<?xml version="1.0" standalone="no"?>
<!DOCTYPE svg PUBLIC "-//W3C//DTD SVG 20010904//EN"
 "http://www.w3.org/TR/2001/REC-SVG-20010904/DTD/svg10.dtd">
<svg version="1.0" xmlns="http://www.w3.org/2000/svg"
 width="1280.000000pt" height="1280.000000pt" viewBox="0 0 1280.000000 1280.000000"
 preserveAspectRatio="xMidYMid meet">

<g transform="translate(0.000000,1280.000000) scale(0.100000,-0.100000)"
fill="#000000" stroke="none">
<path d="M0 6400 l0 -6400 6400 0 6400 0 0 6400 0 6400 -6400 0 -6400 0 0
-6400z m7685 3658 c404 -60 749 -187 1049 -385 250 -166 478 -400 647 -663
120 -186 224 -414 280 -616 75 -267 110 -602 90 -844 -54 -624 -263 -1103
-652 -1490 -283 -282 -607 -470 -989 -575 -298 -81 -356 -85 -1331 -85 l-829
0 0 230 0 229 753 -6 c515 -4 793 -2 882 6 257 22 491 85 690 186 303 153 518
342 692 607 440 670 396 1614 -104 2243 -298 374 -725 611 -1223 679 -100 14
-355 16 -2110 16 l-1995 0 1 -3188 0 -3187 305 -3 c422 -4 518 11 711 110 201
102 343 279 399 493 18 67 19 169 19 2193 l0 2122 1203 0 c1040 0 1211 -2
1261 -15 172 -45 293 -156 361 -330 24 -61 28 -239 6 -295 -70 -180 -182 -291
-354 -351 -106 -37 -129 -38 -88 -3 58 49 84 108 89 200 4 75 2 89 -22 138
-14 29 -48 74 -75 99 -86 81 -38 77 -1023 77 l-868 0 0 -1844 c0 -2003 1
-1964 -55 -2162 -31 -111 -123 -295 -196 -394 -149 -201 -389 -367 -668 -460
-183 -61 -198 -63 -873 -67 l-618 -4 0 3681 0 3680 2263 -3 c2027 -3 2273 -5
2372 -19z m-74 -979 c308 -52 550 -177 770 -398 160 -161 256 -314 332 -531
74 -211 94 -498 49 -715 -50 -242 -145 -461 -266 -611 -225 -279 -495 -446
-851 -525 -98 -22 -115 -23 -897 -26 l-798 -4 0 170 0 170 748 3 747 4 90 28
c376 116 630 368 743 736 23 78 26 100 26 265 1 168 -1 186 -27 273 -15 51
-38 117 -52 147 -57 129 -172 273 -288 361 -75 57 -241 137 -345 167 l-77 22
-1512 3 -1513 2 0 -2337 0 -2338 -24 -50 c-31 -67 -75 -108 -153 -147 -60 -29
-76 -32 -182 -36 l-116 -4 0 2696 0 2696 1736 0 c1717 0 1738 0 1860 -21z"/>
</g>
</svg>
